<?xml version="1.0" encoding="UTF-8"?>
<svg version="1.1" viewBox="0 0 2016 1680" width="1280" height="1280" xmlns="http://www.w3.org/2000/svg">
<path transform="translate(853)" d="m0 0h410l50 4 52 3 22 1h129l17 3 16 5 15 8 16 10 19 14 10 9 8 7 12 11 23 23 7 8 12 13 11 14 10 13 10 15 11 18 10 18 13 28 8 20 7 19 15 38 9 21 9 17 14 21 13 16 7 8 12 13 19 19 8 7 8 8 11 9 12 11 11 9 36 36 7 8 10 12 14 19 14 24 9 20 7 21 5 26 2 16 1 14v31l-3 23-5 23-6 20-8 20-13 25-11 16-13 17-11 13-7 8-9 10-10 10-7 8-11 11-7 8-25 25-3 4h-2l-2 4-9 10-14 19-7 10-11 19-12 23-11 26-18 47-13 27-11 17-10 14-12 16-13 15-7 8-9 10-7 7-8 7-10 9-10 8-8 7-25 20-32 22-12 8-23 15-21 13-24 14-25 14-25 13-22 12-40 20-28 13-48 24-23 11-24 12-31 14-66 33-22 12-31 16-19 10-22 11-17 9-23 11-21 9-19 7-23 7-36 9-56 11-79 16-86 19-35 8-48 10-65 12-51 8-39 5h-88l-31-4-36-7-50-12-20-6-28-11-23-11-18-11-14-10-13-10-11-9-22-22-15-20-12-17-11-18-10-21-4-12-2-19v-50l1-33 5-64 14-122 6-49 3-30 3-50v-74l-2-28-5-36-6-29-8-27-11-28-15-33-12-26-16-36-11-25-10-27-12-36-6-17v-90l7-20 9-21 7-13 10-15 11-14 12-13 6-7h2l2-4 6-5 7-8 16-17 12-13 10-12 11-15 11-18 12-23 7-17 7-28 3-21v-17l-4-12v-7l9-11 11-12 9-7 14-12 27-21 16-11 17-11 35-20 32-16 38-17 38-14 54-17 52-13 41-9 76-14 57-8 73-9 78-7z" fill="#FDFDFD"/>
<path transform="translate(1612,578)" d="m0 0h6l5 6 2 6 1 16 4 16 5 12 12 14 4 5 22 18 25 15 8 4 20 14 13 11 5 6 1 10-2 3-10 2h-11l-37-3-9-2-13-1-5 3h-2l-2 4-9 17-7 21v9l6 15-3 9-14 16-4 4h-2l-2 4-13 14-8 12-7 7-7 11-10 14-8 12-9 12-10 14-8 12-13 19-8 12-15 20-9 11-6 8-7 9-8 10-7 8-8 10-8 7-12 13-8 7-10 9-26 20-16 12-18 13-41 27-45 27-16 8-27 14-26 12-24 10-28 11-35 12-50 13-36 7-53 8-46 5-76 6-36 2-68 2h-53l-63-2-38-2-50-5-68-8-28-5-34-7-28-7-26-8-26-11-22-12-14-11-10-11-9-13-12-19-8-16-8-17-12-36-8-32-6-35-6-42-2-22-1-18v-56l2-28 6-46 5-26 6-22 7-19 8-18 10-19 12-26 6-17 7-35 6-3h11l4 2 5 10 3 16 4 28 2 18 2 31 7 20 4 6 10 10 10 6 12 9 15 11 14 9 15 9 27 12 25 10 36 12 26 7 34 7 31 5 37 4 41 2h54l49-2 34-3 46-6 62-10 45-9 55-12 35-9 22-6 35-10 22-6 33-10 27-8 51-17 64-23 38-14 21-8 24-10 29-11 29-12 25-11 17-7 21-10 20-8 18-8 23-11 16-7 3-5 1-11 2-8-2-4 1-7 6-10 12-10z" fill="#0C0C0C"/>
<path transform="translate(853)" d="m0 0h410l50 4 52 3 22 1h129l17 3 16 5 15 8 16 10 19 14 10 9 8 7 12 11 23 23 7 8 12 13 11 14 10 13 10 15 11 18 10 18 13 28 8 20 7 19 15 38 9 21 9 17 14 21 13 16 7 8 12 13 19 19 8 7 8 8 11 9 12 11 11 9 36 36 7 8 10 12 14 19 14 24 9 20 7 21 5 26 2 16 1 14v31l-3 23-5 23-6 20-8 20-13 25-11 16-13 17-11 13-7 8-9 10-10 10-7 8-11 11-7 8-25 25-3 4h-2l-2 4-9 10-14 19-7 10-11 19-12 23-11 26-18 47-13 27-11 17-10 14-12 16-13 15-7 8-9 10-7 7-8 7-10 9-10 8-8 7-25 20-32 22-12 8-23 15-21 13-24 14-25 14-25 13-22 12-40 20-28 13-48 24-23 11-24 12-31 14-66 33-22 12-31 16-19 10-22 11-17 9-23 11-21 9-19 7-23 7-36 9-56 11-79 16-86 19-35 8-48 10-65 12-51 8-39 5h-88l-31-4-36-7-50-12-20-6-28-11-23-11-18-11-14-10-13-10-11-9-22-22-15-20-12-17-11-18-10-21-4-12-2-19v-50l1-33 5-64 14-122 6-49 3-30 3-50v-74l-2-28-5-36-6-29-8-27-11-28-15-33-12-26-16-36-11-25-10-27-12-36-6-17v-90l7-20 9-21 7-13 10-15 11-14 12-13 6-7h2l2-4 6-5 7-8 16-17 12-13 10-12 11-15 11-18 12-23 7-17 7-28 3-21v-17l-4-12v-7l9-11 11-12 9-7 14-12 27-21 16-11 17-11 35-20 32-16 38-17 38-14 54-17 52-13 41-9 76-14 57-8 73-9 78-7zm307 64-84 2-105 4-37 2-142 10-91 9-67 8-54 8-22 5-44 6-62 9-24 5-27 9-17 5-12 5-21 8-16 8-21 11-13 8-19 12-19 14-8 7-10 8-12 11-8 7-16 15-8 8-9 11-7 12v10l1 16-2 18-4 19-7 27-6 15-8 13-10 13-18 20-14 14v2l-4 2-5 6-7 6-5 5-12 13-10 11-13 18-13 25-9 23-4 22-2 23v35l3 23 5 22 9 25 8 16 12 21 18 27 12 21 8 16 10 23 6 20 6 27 6 36 3 26 2 30v32l-3 64-5 60-10 91-10 95-3 38-1 18v53l2 19 4 17 7 16 8 15 12 17 11 13 7 7 14 11 11 8 19 11 25 12 24 9 29 9 25 6 30 5 34 4 50 3h32l54-3 56-5 45-6 61-10 51-10 46-12 40-12 30-10 24-9 28-8 28-6 9-1 24 2 14 1 3 2h16l30-10 38-18 34-17 44-24 10-6 32-17 29-14 28-13 26-12 24-11 34-16 20-9 36-16 84-42 22-12 17-9 16-9 24-14 15-9 23-15 14-9 12-8 18-13 12-10 19-14 17-16 9-9 2-1v-2h2v-2h2l7-8 23-23 10-13 7-11 8-11 9-15 9-19 5-11 9-25 11-32 11-26 8-13 13-16 6-9v-2l12-6 13-4 3-3v-10l-5-2-18 4-6 3 3-5v-2h2v-2h2v-2l4-2 9-2 18-10 10-7 11-7 9-8 8-6 5-5v-2l4-2 10-10 7-8 6-7 13-17 9-14 9-16 9-21 6-19 5-23 2-17v-20l-3-25-5-23-7-20-11-23-12-19-10-13-9-11-8-8-7-8-15-14-19-14-13-8-19-11-4-1 2 4 12 7 14 11 8 10 14 20 13 21 6 22 6 38 2 20v32l-3 46-2 21-8 38-6 21-6 10-8 9-16 10-21 12-17 8-30 10-18 4h-10l-8-1v-3l19-4 32-10 19-9 11-7 18-14 9-10 8-13 8-14 8-19 5-19 5-33 2-31v-31l-1-24-3-31-3-15-8-16-10-14-14-15-7-8-8-7-9-8-16-8-25-8-24-5-33-4-18-1-31 1h-22l6-7 13-6 14-3 12-1h33l27 2 26 3 4-1-3-1-2-5-20-30-13-20-14-23-12-22-12-23-8-16-11-23-24-48-10-19-14-24-13-19-13-17-12-14-8-9-8-7-12-10-13-9-19-12-16-8-17-6-17-4-22-3-25-2-49-2-155-4-50-1z" fill="#0C0C0C"/>
<path transform="translate(1181,321)" d="m0 0h25l29 2 23 3 24 5 27 9 21 9 24 12 13 8 10 8 10 9 13 14 10 15 10 18 8 21 2 7v8l-3 5-9 6-21 10-5 1h-15l-28-4-16-5-29-7-22-3-12-1h-63v4h-2l-2-3-22 4-29 6-35 10-42 15-18 8-60 30-4-1-18-12-14-10-10-8-9-7-7-7-9-14-5-15v-9l6-18 7-13 10-14 11-12 4-5h2v-2l13-10 12-9 18-11 26-14 19-8 30-10 36-8 26-4 20-2z" fill="#0C0C0C"/>
<path transform="translate(492,386)" d="m0 0h45l17 2 25 5 25 7 26 9 23 10 19 10 16 10 11 10 8 7 2 4 3 1 7 8 9 5 7-1 11-5 15-2h15l11 4 6 5 2 3v8l-7 14-5 6-9 5-15 6-16 8-10 4-5 3-4 9-1 76 1 14-4 11-7 7-27 18-16 9-18 14-14 14-6 10-2 6 8 16 9 14 10 14 12 14 15 16 12 11 13 9 8 3 11 2 15-5 11-7 9-6 13-2 4 1 3 7-1 9-6 15-11 20-8 9-10 7-7 3-7 1-13-2-15-5-14-9-14-12-8-7-14-15-7-8-13-15-12-13-7-8-9-9-10-7-7-3-5 1-5 5-9 10-5 4-6 1-5-3-9-19-6-12-5-1-17 8-21 12-26 15-22 8-16 6-4-1 7-7 15-10 14-8 25-14 19-12 14-10 11-8 20-14 7-6 11-8 8-7 11-9 11-10 14-11 12-10 10-8 10-9 9-7 13-9 7-6 5-7 1-7-2-11-1-40v-10l-3-7-7-4-18-8-20-6-27-6-38-5-51-5-37-3-27-3-28-6-20-6-10-4-9-8-1-7 3-10 8-14 11-13 11-9 14-9 15-6 18-5 19-3z" fill="#0C0C0C"/>
<path transform="translate(1625,482)" d="m0 0h24l26 3 14 3 16 4 20 7 25 12 19 12 13 11 10 9 8 9 12 16 9 15 8 15 8 21 5 21 2 19v18l-2 20-4 19-7 18-10 19-8 15-8 10-10 11-6 8-9 4h-4l-3-7v-15l3-16 18-60 4-19 1-21-2-17-4-20-7-21-8-14-8-11-9-10-7-7-10-7-16-10-20-8-19-5-20-3-12-1h-21l-16 2-12 4-12 7-12 9-15 9-23 12-24 10-29 9-34 8-24 4-23 2h-51l-22-2-25-5-15-4-19-7-16-8-14-8-14-12-7-8-10-15-5-12-6-23-2-12 2-5 16 5 19 10 14 10 13 11 16 12 10 7 20 12 20 8 18 4 8 1h29l23-3 27-6 20-8 16-8 15-8 23-11 23-13 25-12 10-3 18-5 16-3z" fill="#0D0D0D"/>
<path transform="translate(1126,1035)" d="m0 0 3 1 2 12 1 21 6 21 8 18 12 25 7 14 11 23 1 5-10 5-30 9-79 22-44 9-41 7h-8l-1-4h-13l-8 2-10-2-4-9-2-19-3-42-2-29v-26l4-5 7-3 40-8 26-6 32-9 23-7 48-16 21-8z" fill="#FEFEFE"/>
<path transform="translate(1365,941)" d="m0 0h2l1 2 1 29 2 15 5 15 4 10 9 11 5 11-2 5-5 5-16 12-13 9-9 7-11 8-16 12-14 10-15 11-16 11-15 10-11 7-12 8-11 6-7 3-3-4-12-30-17-36-9-27-4-19-1-18 7-5 10-4 10-5 37-12 21-9 25-11 17-7 15-7 37-19z" fill="#FEFEFE"/>
<path transform="translate(873,1101)" d="m0 0h6l2 6v15l-1 41v21l2 30 2 16 3 7 1 8-3 3-8 3-39 4-19 1-37 1h-58l-4-8-9-57-8-45-2-14v-10l1-1 45-1 38-4 32-5 33-6z" fill="#FEFEFE"/>
<path transform="translate(1392,774)" d="m0 0h4v13l-3 17-6 16-8 16-5 4-4 6-5 4-7 8-5 4-21 11-19 8-36 12-63 17-32 8-38 13h-7l-4-5-10-39-6-32v-6l5-4 11-4 37-10 19-5 76-21 36-9 37-9z" fill="#FEFEFE"/>
<path transform="translate(1551,1190)" d="m0 0h2l-1 5-11 11-15 10-35 20-16 9-22 12-74 37-23 11-27 12-24 10-15 6-29 12-19 8-20 7-25 9-14 5-36 12-33 10-20 6-24 7-43 12-39 9-46 10-45 9-74 12-62 8-77 8-52 4-60 3-40 1h-60l-34-2-46-6-24-4-30-8-16-6-29-14-14-8-13-11-8-7-7-7-9-11-9-14-5-13-3-18-1-28 2-4 7-1 2 3v30l1 15 4 13 7 9 9 8 23 16 21 12 17 8 35 12 25 7 42 8 43 6 16 2 14 1h113l50-3 46-4 79-9 51-7 90-18 59-14 31-8 55-16 34-11 27-9 37-13 43-16 71-29 22-10 31-14 28-13 40-20 11-6 24-13 19-11 34-17 23-9 37-12z" fill="#121212"/>
<path transform="translate(1087,871)" d="m0 0 3 3 4 9 6 24 6 31 3 16v7l-8 4-43 11-54 13-33 6-23 3-31 2-9 1-11-2-5-6-2-8v-32l1-33 3-7 9-3 66-14 68-15 36-7z" fill="#FEFEFE"/>
<path transform="translate(1028,128)" d="m0 0h68l31 2 35 4 35 6 42 9 38 11 21 7 21 8 15 6 29 13 22 12 20 12 19 12 15 10 18 13 11 8 11 9 12 11 7 8 10 10v2h2l7 8 6 7 1 4-4-1-9-6-10-9-15-12-14-10-18-13-16-10-15-10-11-7-19-11-21-11-16-8-25-13-18-7-10-5-37-13-25-8-41-10-32-6-35-5-33-3-21-1h-58l-44 3-30 4-94 18-34 5-31 3-16 1h-74l-104-5-88-8-21-2-42-3-17 1-7 3-16 16-9 5h-5l-1-1 1-9 6-7 22-12 13-5 12-2 12-1h37l23 2 47 6 32 3 38 2 28 1h42l45-2 32-2 44-5 98-13 38-5 23-2z" fill="#111"/>
<path transform="translate(245,547)" d="m0 0h29l24 4 30 7 28 8 22 8 13 6 15 9 18 14 4 1 5-2 4 2 6-1 12-9 11-5 10-4 12-6 9 1 6 4 5 6 2 9-4 11-7 10-9 9-14 7-19 5-18 3-20 2h-41l-12 1-7-3-4-5-7-21-8-11-10-7-10-5-19-3h-33l-31 4-39 7-13 3-6 1h-15l-5-2-1-6 4-10 9-10 12-12 11-7 14-7 16-4z" fill="#0D0D0D"/>
<path transform="translate(1610,677)" d="m0 0h6l3 2v12l-4 24-4 17-8 16-9 12-8 11-6 5-5 5-10 7-7 6-9 5-17 10-14 6-19 7-31 9-23 6h-6l-2-3-1-47-2-16v-7l3-5 5-4 21-9 13-7 17-10 18-10 16-9 22-12 17-8 30-10z" fill="#FEFEFE"/>
<path transform="translate(1442,1197)" d="m0 0h8v2l-13 7-6 3-21 6-29 14-24 11-19 10-42 21-19 9-19 10-16 8-23 12-16 8-17 9-28 13-30 13-29 12-20 8-21 6-20 7-24 6-22 5-29 6-38 6-43 5-26 2-110 3h-75l-66-1-14 1-39 1h-28l-26-2-37-5-24-4-29-8-26-12-14-8-12-9-10-9-9-10-11-18-6-17-1-8 5 2 9 10 7 8 11 11 17 13 16 11 18 10 18 8 27 9 24 6 50 10 26 3 17 1 38 1 3 1h82l78-1 31-1 38-3 48-7 77-13 35-8 41-12 26-9 25-9 23-10 21-8 19-10 18-8 16-8 19-9 19-10 82-41 25-12 25-11 31-12 27-9z" fill="#121212"/>
<path transform="translate(1049,83)" d="m0 0h69l33 3 32 5 42 9 28 8 41 14 19 8 37 17 19 10 18 10 20 12 34 22 17 12 22 15 18 13 13 10 14 10 15 11 12 9 9 9 1 4-6-2-20-13-23-14-14-8-16-10-13-9-26-16-10-7-20-13-13-8-19-11-17-10-24-13-29-14-39-16-20-7-24-7-32-8-45-8-38-4h-50l-38 3-50 6-134 19-49 5-32 2h-61l-62-3-35-1-68-1-25-1v-1l22-3 30-3 7-1 26-1h73l44-1 69-4 57-5 53-7 55-7 69-7z" fill="#111"/>
<path transform="translate(500,907)" d="m0 0 7 1 12 3 31 6 27 3 81 7 2 1v11l-2 10 1 27v20l-5 3-31-1h-29l-35-2-33-3-14-3-25-5-3-5 1-9 6-24 6-32z" fill="#FEFEFE"/>
<path transform="translate(598,1130)" d="m0 0 30 1 13 2 13 5 8 7 8 8 7 10 5 10 7 21 5 22 7 35-1 5h-41l-29-3-12-3-5-2-4-8-7-24-8-20-9-25-8-21-3-12 1-4 8-2z" fill="#FEFEFE"/>
<path transform="translate(816,906)" d="m0 0h7l2 3v85l-1 2-3 1-17 1-95 1-5-2-3-4v-20l3-15 4-13 2-18 2-5 13-2 27-4 25-5 28-4z" fill="#FEFEFE"/>
<path transform="translate(992,644)" d="m0 0h14l14 2 23 7 16 8 9 6 5 5 4 6 3 12 2 17v29l-4 19-9 26-7 9-8 9-9 5-2 1-15 1-8-5-8-4-3-4v-8l4-9 10-17 5-4 7-8 5-14 2-16v-7l-3-7-4-3-19-5-36-5-19-4-7-4-1-2 1-10 5-8 11-10 7-5 6-2z" fill="#0D0D0D"/>
<path transform="translate(312,450)" d="m0 0 22 1 6 9 1 5-29-3-12-1h-27l-20 2-40 10-25 9-21 9-14 8-14 10-12 11-8 8-11 14-11 18-10 21-5 21-3 21v48l4 26 5 16 6 15 6 8 5 5 9 6 20 9 31 12 18 8 7 7 3 8 1 13-5-1-13-8-22-12-19-9-18-8-16-9-14-12-6-9-5-10-8-25-3-19-1-10v-43l2-25 5-20 6-18 12-25 7-11 9-12 9-10 17-17 14-10 18-11 15-7 13-4 6-1h13l3 2h10l58-8z" fill="#111"/>
<path transform="translate(395,874)" d="m0 0 7 1 35 18 24 7 12 4 4 3-2 12-8 20-12 25-2 4v6l2 4 1 9 4 7-23-3-6-3-9-2-22-3-8-3-3-7-7-38v-18l3-20 4-12z" fill="#FEFEFE"/>
<path transform="translate(895,708)" d="m0 0h26l22 2 22 4 21 8 3 5-2 10-6 26-5 5h-8l-15-5-13-3h-43l-19 2h-29l-13-4-6-5-2-4v-7l4-8 7-7 10-6 16-7 13-4z" fill="#0D0D0D"/>
<path transform="translate(1122,389)" d="m0 0h8l2 7 3 17 5 12 2 5v5l-4 3-13 3-14 3-24 7-15 6-19 9-12 6-19 7-18 5h-7l-8-7-2-8 1-8 6-12 9-10 10-8 23-12 13-6 22-8 25-8 22-7z" fill="#FEFEFE"/>
<path transform="translate(1551,869)" d="m0 0 2 2-6 11-9 11-6 7-6 9-5 10-10 14-13 19-13 17-14 14-14 10-10 5h-5l-2-6-4-2-1-10-2-6-1-9v-15l9-24 10-11 5-5 8-7 23-12 24-10 29-10z" fill="#FEFEFE"/>
<path transform="translate(814,1323)" d="m0 0h34l14 3 12 5 10 9 1 5h-10l-9 1-8-1-35 2-40 3-55 4-24 1h-37l-31-2-23-4-22-8-12-7-4-3v-2l192-1 26-2z" fill="#101010"/>
<path transform="translate(340,815)" d="m0 0 5 1 4 4 1 8-1 34-4 31-5 24-10 42-3 5-9-1-12-6-10-9-5-4-4-7-1-6v-18l4-21 7-20 8-16 9-12 16-24 4-4z" fill="#FEFEFE"/>
<path transform="translate(1023,195)" d="m0 0h120l36 3 44 8 26 6 24 7 25 9 28 12 27 15 10 7 14 10 12 11 16 16 10 15 7 12 8 20-1 4-11-13-13-17-11-12-20-20-17-13-15-9-22-12-26-12-24-9-19-6-29-7-39-7-40-5-26-2-64-2-44-1-11-2-6-2 3-2z" fill="#121212"/>
<path transform="translate(543,226)" d="m0 0h78l34 3 39 7 28 7 8 5 5 7-1 7-2 4-10-2-29-9-28-8-24-5-20-3-11-1h-62l-21 2-17 3-29 8-21 9-20 12-13 10-9 8-11 14-7 10-6 15-6 10-5 2-1-4 8-26 5-13 8-16 6-9 9-7 18-10 17-8 25-9 26-7 18-4z" fill="#121212"/>
<path transform="translate(319,1310)" d="m0 0 5 2 9 10 7 8 11 11 17 13 16 11 18 10 18 8 27 9 24 6 50 10 26 3 17 1 38 1 3 3v2l-14 1-39 1h-28l-26-2-37-5-24-4-29-8-26-12-14-8-12-9-10-9-9-10-11-18-6-17z" fill="#111"/>
<path transform="translate(1874,510)" d="m0 0 4 4 12 19 4 8 6 24 6 41 1 12v32l-3 46-2 21-8 38-6 21-6 10-9 10-16 10-21 12-17 8-30 10-18 4h-10l-8-1-1-4 7-2 16-4 29-9 19-9 11-7 18-14 8-9 8-13 8-14 8-19 5-19 5-33 2-31v-31l-1-24-3-31-3-15-3-9 5 2-1-7h-2l-4-9-2-4-2-1-4-8z" fill="#111"/>
<path transform="translate(451,1130)" d="m0 0 8 1 14 4 12 3h16l5 3 3 5 5 17 7 15 10 23 8 18v2l-16 1-32-3-7-3-4-4-3-20-5-13-9-17-10-17-5-10v-4z" fill="#FEFEFE"/>
<path transform="translate(374,1102)" d="m0 0 6 1 10 9 7 9 6 11 7 10 17 33 9 26 8 16 1 3-4 1-40-6-12-3-5-3-18-6-10-6-1-6 2-2 9 1 7 2 10-5 5-6 1-7-2-12-10-26-5-17-1-14z" fill="#FEFEFE"/>
<path transform="translate(218,517)" d="m0 0h5l1 7-16 11-16 8-11 6-17 11-10 9-7 7-7 12-2 10 1 14 3 14v40l2 17 1 3 4 2 15 9 13 8 4 3v3h-9l-10-3-16-8-6-4-7-14-5-20-2-20v-49l2-12 3-14 8-11 5-5 13-9 26-13z" fill="#131313"/>
<path transform="translate(1465,417)" d="m0 0 14 1 43 15 33 11 1 5-3 7-4 11-5 5-9 6-8 4h-18l-13-4-6-4-5-5 2-2 6-2 19-2 16-4 2-1v-2l-10-5-29-10-16-7-9-7-2-5z" fill="#101010"/>
<path transform="translate(1088,640)" d="m0 0h6l3 3v23l5 12 3 4v2l10 3 4 1 19 1 128 1 4 5 2 8-5-1-37-1h-109l-14-3-10-6-10-8-2-6-1-15-1-5 1-1 1-14z" fill="#0F0F0F"/>
<path transform="translate(1e3 224)" d="m0 0h10l5 5-2 5-10 10-14 16-10 15-7 16-6 16v19l2 24-5-5-4-5-6-13-1-10v-10l2-13 5-15 9-16 9-14 8-12 7-8z" fill="#101010"/>
<path transform="translate(509,420)" d="m0 0h8l7 4 9 8 2 4v6l-9 3-15 1-15 2-11 1h-22l-8-3-4-4-3-6 1-5 5-3 38-6z" fill="#FEFEFE"/>
<path transform="translate(1874,510)" d="m0 0 4 4 12 19 4 8 6 24 6 41 1 12v32l-3 46-1 10h-1l-1-6-2-4 1-3h-2l-1 2-2-3-2 12h-1l1-13 2-20 1-19v-31l-1-24-3-31-3-15-3-9 5 2-1-7h-2l-4-9-2-4-2-1-4-8z" fill="#494949"/>
<path transform="translate(407,1259)" d="m0 0 9 1 28 6 21 4 25 4 63 7 35 3 17 2 22 1h172l1-2v2l9-2 8-1h36l55-3 22-1h14v1l-47 4-57 4-45 2-42 1h-53l-63-2-38-2-50-5-68-8-28-5-34-7-12-3z" fill="#494949"/>
<path transform="translate(674,289)" d="m0 0 5 1 7 9 8 16 4 11 2 49v28l-3 13-4-2-2-6-1-49-1-21-4-13-6-9-6-8-3-8-1-8z" fill="#151515"/>
<path transform="translate(1094,883)" d="m0 0 2 3 6 24 5 26 3 10 1 7v8l-7 8-3 2-14 3-27 4-27 6-16 4-11 3-50 8-3 1-34 2h-22l-5-4-3-10-1-10v-44l2-18 2-3 2 1-2 6-1 33v32l3 9 3 4 14 2 17-2 20-1 35-5 30-6 64-16 27-7 4-2-1-14-6-29-5-24-2-7z" fill="#494949"/>
<path transform="translate(1047,832)" d="m0 0 4 1-42 11-66 14-26 5-67 11-46 6-34 3-36 2h-69l-43-3-27-3-37-6-39-9-3-2 8 1 28 6 41 7 37 4 41 2h54l49-2 34-3 46-6 62-10 45-9 55-12z" fill="#494949"/>
<path transform="translate(796,1412)" d="m0 0h15v1l-8 1v1h53v1l-110 3h-75l-65-1-3-4h84l78-1z" fill="#242424"/>
<path transform="translate(812,904)" d="m0 0h10l3 1 1 2 1 65v22l-5 5-9 2-10 1h-46l-50-1-7-5-1-3 1-21 1-5h1v26l3 4 4 1 98-1 17-1v-87l-1-2-18 1-28 4-36 7-26 3-4 1 1-3 4-2h12l9-2 18-2 24-5 24-3z" fill="#494949"/>
<path transform="translate(284,1074)" d="m0 0 7 6 5 8 12 23 7 14 2 8v16h-4l-5-10-11-28-7-17-6-18z" fill="#FEFEFE"/>
<path transform="translate(1341,418)" d="m0 0h7l6 4 9 9 4 6v6l-7 2-11-2-10-9-2-5v-8z" fill="#FEFEFE"/>
<path transform="translate(1293,755)" d="m0 0 3 1-11 5-26 9-4 3-28 9-21 6-11 5-13 4-20 5-5 3-7 2-11 4-14 4-18 3-36 10-4-1 30-9 30-8 32-10 31-9 51-17 28-10z" fill="#494949"/>
<path transform="translate(1088,640)" d="m0 0h6l3 3v23l3 7-1 4-2 1 1 3h-10l2 2-2 2-3-5-1-17-1-5 1-1 1-14z" fill="#474747"/>
<path transform="translate(1467,483)" d="m0 0 5 1 12 8 7 8 2 5-1 7-3 2-8-1-6-4-3-3-5-13-1-8z" fill="#131313"/>
<path transform="translate(660,928)" d="m0 0 2 4-2 14v15l2 21v13l-3 5-4 1h-16l-28-1h-12l-23-1-36-3-19-3-23-4-11-3 4-1 21 4 14 3 46 4 22 1h31l29 1 4-2v-20l-1-27 2-10z" fill="#494949"/>
<path transform="translate(1808,818)" d="m0 0 3 1-8 5-13 7 1 2 4-1h2l1-3v2l3 1-16 5-14 3h-10l-8-1-1-4 7-2 16-4 29-9z" fill="#474747"/>
<path transform="translate(507,418)" d="m0 0h11l9 7h-3l-7-4-17 1-28 4-18 3-4 1 3-3 7-3 10-3z" fill="#494949"/>
<path transform="translate(368,1204)" d="m0 0 9 2 10 3 5 3 21 4 24 3 7 1-1-6 3 4 2 4-2 2h-9l-22-5-19-3-10-3-4-3-12-4z" fill="#494949"/>
<path transform="translate(1433,764)" d="m0 0h1l3 21v15l1 34 1 2 9-1 8-2 4 1-18 5-5-1-3-3v-55l-1-6h-1z" fill="#494949"/>
<path transform="translate(543,120)" d="m0 0h11v1l-13 2-1 1 63 1v1h-68l-25-1v-1l22-3z" fill="#494949"/>
<path transform="translate(1223,468)" d="m0 0h36l24 2 21 3v1l-13-1-21-2h-63v4h-2l-4-5 6-1z" fill="#494949"/>
<path transform="translate(964,302)" d="m0 0 2 2v22l2 24-5-5-1-2h2l-1-2v-21l-3 1 1-8-1-7z" fill="#474747"/>
<path transform="translate(1270,697)" d="m0 0 2 4v2l-5-1-37-1-63-1v-1l25-1 74 1h3z" fill="#494949"/>
<path transform="translate(1138,690)" d="m0 0h128l3 3v2l-3-1-1-2h-75l-52-1z" fill="#494949"/>
<path transform="translate(1376,281)" d="m0 0 4 2 10 9 21 21 3 7 2 4h-3l-5-5-1-7-6-4-14-14v-2l-4-2-3-3v-2l-4-2z" fill="#484848"/>
<path transform="translate(929,1430)" d="m0 0 4 1-1 2-10 3-19 4h-9l-10 2-2 1h-10v-1l49-10z" fill="#474747"/>
<path transform="translate(796,1412)" d="m0 0h15v1l-8 1v1h53v1l-42 1h-30v-1h5v-2l-3 1-21-1v-1z" fill="#494949"/>
<path transform="translate(951,1222)" d="m0 0h13l1 5 15-1v1l-6 1h-10l-4-3h-5l-2 3h-13l-6-3-1-2 12 1z" fill="#494949"/>
<path transform="translate(1671,450)" d="m0 0 2 1-4 5h28l2-1 37 2v1h-29l-20 1h-17l-5-1 2-4z" fill="#454545"/>
<path transform="translate(1086,869)" d="m0 0 4 1 4 9-1 4-5-11-45 9h-6v-1l29-6 16-4z" fill="#494949"/>
<path transform="translate(339,812)" d="m0 0h5l5 4 2 9-1 38-1 8h-1l1-45-2-8-3-2h-10l3-3z" fill="#494949"/>
<path transform="translate(387,1181)" d="m0 0v3l-6 5-8 4-13-3-4 1v6l-3-3 2-5 1-1h18l9-4z" fill="#494949"/>
<path transform="translate(1491,502)" d="m0 0 2 3-1 7-3 2-8-1-4-3h5v-2l4-1v-2l4-1z" fill="#494949"/>
<path transform="translate(1391,773)" d="m0 0h6l1 1 1 12-2 5-2 10-2 3 2-17 1-13-20 5-4-1z" fill="#494949"/>
<path transform="translate(1132,1453)" d="m0 0 3 1-10 7-7 3-10 6-22 11-2-1 44-24z" fill="#494949"/>
<path transform="translate(80,686)" d="m0 0h1l4 19 1 5-4 1-4-5h2v-3h-3l-1-6 5 5-1-2z" fill="#454545"/>
<path transform="translate(1366,939)" d="m0 0 3 1 1 7v31h-1l-1-6-1-31-7 3-3-1z" fill="#494949"/>
<path transform="translate(1491,283)" d="m0 0 7 6 10 10v2h2l3 5-5-2-17-17-1-3z" fill="#494949"/>
<path transform="translate(1433,945)" d="m0 0 1 2-1 3v15l1 9 3 12 1 5 4 4-1 3v-2l-4-2-2-3-2-14-2-6-1-19z" fill="#494949"/>
<path transform="translate(953,298)" d="m0 0h1l1 13v5l3-1v5h-2v2h-2v5h-1l-1-10v-10z" fill="#494949"/>
<path transform="translate(456,987)" d="m0 0 7 6v3h-8l-7-2-11-2v-1l18 1h3z" fill="#494949"/>
<path transform="translate(282,1070)" d="m0 0 8 6 6 9 2 6-3-3-5-8-5-4 3 8-1 3-5-12z" fill="#494949"/>
<path transform="translate(882,1402)" d="m0 0h6v3l-12 2-4-1-4 2-3-1-2-2z" fill="#494949"/>
<path transform="translate(1612,578)" d="m0 0h6l1 2-5 3h-7l-9 9-2-1 5-5 8-7z" fill="#414141"/>
<path transform="translate(316,1129)" d="m0 0 2 3 1 7v10l-2 4-4-1-3-5 1-3 3 5h2z" fill="#494949"/>
<path transform="translate(1698,455)" d="m0 0 38 2v1h-41z" fill="#494949"/>
<path transform="translate(1551,1190)" d="m0 0h2l-1 5-7 7v-3l2-3-7-2 3-2z" fill="#474747"/>
<path transform="translate(1636,778)" d="m0 0h1l2 11-3-1v3l-4 1v-7z" fill="#494949"/>
<path transform="translate(929,1430)" d="m0 0 4 1-1 2-10 3-7 1 2-4z" fill="#494949"/>
<path transform="translate(1830,889)" d="m0 0h8l3 2-1 11h-1l-1-10-4-1-8 2h-6l4-2z" fill="#494949"/>
<path transform="translate(1501,479)" d="m0 0h13l11 1 4 1-2 1h-18l-8-2z" fill="#494949"/>
<path transform="translate(1442,1197)" d="m0 0h8v2l-7 4h-3l-1-4-3-1z" fill="#2F2F2F"/>
<path transform="translate(965,395)" d="m0 0 2 1-19 19v-3l8-8 3-4h2v-2z" fill="#303030"/>
<path transform="translate(1089,641)" d="m0 0 5 1 3 6-5 1-2-1z" fill="#0B0B0B"/>
<path transform="translate(331,951)" d="m0 0h1l-1 10-3 6-5-1-2-2 7-2z" fill="#494949"/>
<path transform="translate(1371,844)" d="m0 0v3l-5 6-8 7-2-1 12-12z" fill="#494949"/>
<path transform="translate(1090,649)" d="m0 0 4 2-1 6 2 1-4 1-2-6z" fill="#0B0B0B"/>
<path transform="translate(1425,1208)" d="m0 0h6v1l-15 4h-3l2-4h7z" fill="#464646"/>
<path transform="translate(164,698)" d="m0 0 5 2 8 5-4 1-8-6z" fill="#494949"/>
</svg>
